{
    "asset" : {
        "generator" : "Khronos glTF Blender I/O v1.1.22",
        "version" : "2.0"
    },
    "scene" : 0,
    "scenes" : [
        {
            "name" : "Scene",
            "nodes" : [
                0,
                1,
                2
            ]
        }
    ],
    "nodes" : [
        {
            "mesh" : 0,
            "name" : "Icosphere",
            "scale" : [
                0.2623920440673828,
                0.2623920440673828,
                0.2623920440673828
            ],
            "translation" : [
                0,
                0.4218122959136963,
                0
            ]
        },
        {
            "mesh" : 1,
            "name" : "Circle",
            "scale" : [
                -0.16904224455356598,
                -0.16904224455356598,
                -0.16904224455356598
            ],
            "translation" : [
                0,
                0.4403022825717926,
                0
            ]
        },
        {
            "mesh" : 2,
            "name" : "Icosphere.001",
            "scale" : [
                0,
                0,
                0
            ],
            "translation" : [
                0,
                0.049691230058670044,
                0
            ]
        }
    ],
    "animations" : [
        {
            "channels" : [
                {
                    "sampler" : 0,
                    "target" : {
                        "node" : 0,
                        "path" : "scale"
                    }
                },
                {
                    "sampler" : 1,
                    "target" : {
                        "node" : 0,
                        "path" : "translation"
                    }
                }
            ],
            "name" : "IcosphereAction",
            "samplers" : [
                {
                    "input" : 11,
                    "interpolation" : "LINEAR",
                    "output" : 12
                },
                {
                    "input" : 13,
                    "interpolation" : "LINEAR",
                    "output" : 14
                }
            ]
        },
        {
            "channels" : [
                {
                    "sampler" : 0,
                    "target" : {
                        "node" : 1,
                        "path" : "scale"
                    }
                }
            ],
            "name" : "CircleAction",
            "samplers" : [
                {
                    "input" : 15,
                    "interpolation" : "LINEAR",
                    "output" : 16
                }
            ]
        },
        {
            "channels" : [
                {
                    "sampler" : 0,
                    "target" : {
                        "node" : 2,
                        "path" : "scale"
                    }
                }
            ],
            "name" : "Icosphere.001Action",
            "samplers" : [
                {
                    "input" : 11,
                    "interpolation" : "LINEAR",
                    "output" : 17
                }
            ]
        }
    ],
    "materials" : [
        {
            "doubleSided" : true,
            "emissiveFactor" : [
                1,
                0.3200252056121826,
                0.06577809900045395
            ],
            "name" : "Material.001",
            "pbrMetallicRoughness" : {
                "baseColorFactor" : [
                    0.8000000715255737,
                    0.023084091022610664,
                    0,
                    1
                ],
                "metallicFactor" : 0,
                "roughnessFactor" : 0.5636363625526428
            }
        },
        {
            "doubleSided" : true,
            "emissiveFactor" : [
                1,
                0.791142463684082,
                0.4707409143447876
            ],
            "name" : "Material.003",
            "pbrMetallicRoughness" : {
                "baseColorFactor" : [
                    0.800000011920929,
                    0.800000011920929,
                    0.800000011920929,
                    1
                ],
                "metallicFactor" : 0,
                "roughnessFactor" : 0.5
            }
        },
        {
            "doubleSided" : true,
            "emissiveFactor" : [
                0.04004240781068802,
                0.037743233144283295,
                0.04255801811814308
            ],
            "name" : "Material.002",
            "pbrMetallicRoughness" : {
                "baseColorFactor" : [
                    0.8000000715255737,
                    0.7076511979103088,
                    0.37929782271385193,
                    1
                ],
                "metallicFactor" : 0,
                "roughnessFactor" : 0.5
            }
        }
    ],
    "meshes" : [
        {
            "name" : "Icosphere",
            "primitives" : [
                {
                    "attributes" : {
                        "POSITION" : 0,
                        "NORMAL" : 1,
                        "TEXCOORD_0" : 2
                    },
                    "indices" : 3,
                    "material" : 0
                }
            ]
        },
        {
            "name" : "Circle",
            "primitives" : [
                {
                    "attributes" : {
                        "POSITION" : 4,
                        "NORMAL" : 5,
                        "TEXCOORD_0" : 6
                    },
                    "indices" : 7,
                    "material" : 1
                }
            ]
        },
        {
            "name" : "Icosphere.001",
            "primitives" : [
                {
                    "attributes" : {
                        "POSITION" : 8,
                        "NORMAL" : 9,
                        "TEXCOORD_0" : 10
                    },
                    "indices" : 3,
                    "material" : 2
                }
            ]
        }
    ],
    "accessors" : [
        {
            "bufferView" : 0,
            "componentType" : 5126,
            "count" : 63,
            "max" : [
                0.9510578513145447,
                1,
                0.9999999403953552
            ],
            "min" : [
                -0.9510578513145447,
                -0.8506544232368469,
                -0.9999999403953552
            ],
            "type" : "VEC3"
        },
        {
            "bufferView" : 1,
            "componentType" : 5126,
            "count" : 63,
            "type" : "VEC3"
        },
        {
            "bufferView" : 2,
            "componentType" : 5126,
            "count" : 63,
            "type" : "VEC2"
        },
        {
            "bufferView" : 3,
            "componentType" : 5123,
            "count" : 240,
            "type" : "SCALAR"
        },
        {
            "bufferView" : 4,
            "componentType" : 5126,
            "count" : 76,
            "max" : [
                1,
                0,
                1
            ],
            "min" : [
                -1,
                0,
                -1
            ],
            "type" : "VEC3"
        },
        {
            "bufferView" : 5,
            "componentType" : 5126,
            "count" : 76,
            "type" : "VEC3"
        },
        {
            "bufferView" : 6,
            "componentType" : 5126,
            "count" : 76,
            "type" : "VEC2"
        },
        {
            "bufferView" : 7,
            "componentType" : 5123,
            "count" : 192,
            "type" : "SCALAR"
        },
        {
            "bufferView" : 8,
            "componentType" : 5126,
            "count" : 63,
            "max" : [
                2.43322491645813,
                0.681695818901062,
                2.5584404468536377
            ],
            "min" : [
                -2.43322491645813,
                -0.6816959381103516,
                -2.5584404468536377
            ],
            "type" : "VEC3"
        },
        {
            "bufferView" : 9,
            "componentType" : 5126,
            "count" : 63,
            "type" : "VEC3"
        },
        {
            "bufferView" : 10,
            "componentType" : 5126,
            "count" : 63,
            "type" : "VEC2"
        },
        {
            "bufferView" : 11,
            "componentType" : 5126,
            "count" : 22,
            "max" : [
                0.9166666666666666
            ],
            "min" : [
                0.041666666666666664
            ],
            "type" : "SCALAR"
        },
        {
            "bufferView" : 12,
            "componentType" : 5126,
            "count" : 22,
            "type" : "VEC3"
        },
        {
            "bufferView" : 13,
            "componentType" : 5126,
            "count" : 3,
            "max" : [
                0.125
            ],
            "min" : [
                0.041666666666666664
            ],
            "type" : "SCALAR"
        },
        {
            "bufferView" : 14,
            "componentType" : 5126,
            "count" : 3,
            "type" : "VEC3"
        },
        {
            "bufferView" : 15,
            "componentType" : 5126,
            "count" : 11,
            "max" : [
                0.4166666666666667
            ],
            "min" : [
                0
            ],
            "type" : "SCALAR"
        },
        {
            "bufferView" : 16,
            "componentType" : 5126,
            "count" : 11,
            "type" : "VEC3"
        },
        {
            "bufferView" : 17,
            "componentType" : 5126,
            "count" : 22,
            "type" : "VEC3"
        }
    ],
    "bufferViews" : [
        {
            "buffer" : 0,
            "byteLength" : 756,
            "byteOffset" : 0
        },
        {
            "buffer" : 0,
            "byteLength" : 756,
            "byteOffset" : 756
        },
        {
            "buffer" : 0,
            "byteLength" : 504,
            "byteOffset" : 1512
        },
        {
            "buffer" : 0,
            "byteLength" : 480,
            "byteOffset" : 2016
        },
        {
            "buffer" : 0,
            "byteLength" : 912,
            "byteOffset" : 2496
        },
        {
            "buffer" : 0,
            "byteLength" : 912,
            "byteOffset" : 3408
        },
        {
            "buffer" : 0,
            "byteLength" : 608,
            "byteOffset" : 4320
        },
        {
            "buffer" : 0,
            "byteLength" : 384,
            "byteOffset" : 4928
        },
        {
            "buffer" : 0,
            "byteLength" : 756,
            "byteOffset" : 5312
        },
        {
            "buffer" : 0,
            "byteLength" : 756,
            "byteOffset" : 6068
        },
        {
            "buffer" : 0,
            "byteLength" : 504,
            "byteOffset" : 6824
        },
        {
            "buffer" : 0,
            "byteLength" : 88,
            "byteOffset" : 7328
        },
        {
            "buffer" : 0,
            "byteLength" : 264,
            "byteOffset" : 7416
        },
        {
            "buffer" : 0,
            "byteLength" : 12,
            "byteOffset" : 7680
        },
        {
            "buffer" : 0,
            "byteLength" : 36,
            "byteOffset" : 7692
        },
        {
            "buffer" : 0,
            "byteLength" : 44,
            "byteOffset" : 7728
        },
        {
            "buffer" : 0,
            "byteLength" : 132,
            "byteOffset" : 7772
        },
        {
            "buffer" : 0,
            "byteLength" : 264,
            "byteOffset" : 7904
        }
    ],
    "buffers" : [
        {
            "byteLength" : 8168,
            "uri" : "data:application/octet-stream;base64,"
        }
    ]
}
