{
    "asset" : {
        "generator" : "Khronos glTF Blender I/O v1.1.22",
        "version" : "2.0"
    },
    "scene" : 0,
    "scenes" : [
        {
            "name" : "Scene",
            "nodes" : [
                0,
                1,
                2,
                3
            ]
        }
    ],
    "nodes" : [
        {
            "mesh" : 0,
            "name" : "basic_cube.001",
            "rotation" : [
                0.7071068286895752,
                0,
                0,
                0.7071067094802856
            ]
        },
        {
            "mesh" : 1,
            "name" : "deski",
            "rotation" : [
                0.7071068286895752,
                0,
                0,
                0.7071067094802856
            ],
            "translation" : [
                0,
                2,
                0
            ]
        },
        {
            "mesh" : 2,
            "name" : "deski.001",
            "rotation" : [
                0.5,
                -0.5,
                -0.5000000596046448,
                0.4999999403953552
            ],
            "translation" : [
                0,
                2,
                0
            ]
        },
        {
            "mesh" : 3,
            "name" : "deski.002",
            "rotation" : [
                0.5,
                0.5000000596046448,
                -0.5,
                0.4999999403953552
            ]
        }
    ],
    "materials" : [
        {
            "doubleSided" : true,
            "emissiveFactor" : [
                0,
                0,
                0
            ],
            "name" : "Material.002",
            "pbrMetallicRoughness" : {
                "baseColorTexture" : {
                    "index" : 0,
                    "texCoord" : 0
                },
                "metallicFactor" : 0,
                "roughnessFactor" : 0.4000000059604645
            }
        }
    ],
    "meshes" : [
        {
            "name" : "Cube.011",
            "primitives" : [
                {
                    "attributes" : {
                        "POSITION" : 0,
                        "NORMAL" : 1,
                        "TEXCOORD_0" : 2
                    },
                    "indices" : 3,
                    "material" : 0
                }
            ]
        },
        {
            "name" : "Cube.013",
            "primitives" : [
                {
                    "attributes" : {
                        "POSITION" : 4,
                        "NORMAL" : 5,
                        "TEXCOORD_0" : 6
                    },
                    "indices" : 7,
                    "material" : 0
                }
            ]
        },
        {
            "name" : "Cube.014",
            "primitives" : [
                {
                    "attributes" : {
                        "POSITION" : 8,
                        "NORMAL" : 9,
                        "TEXCOORD_0" : 10
                    },
                    "indices" : 11,
                    "material" : 0
                }
            ]
        },
        {
            "name" : "Cube.015",
            "primitives" : [
                {
                    "attributes" : {
                        "POSITION" : 12,
                        "NORMAL" : 13,
                        "TEXCOORD_0" : 14
                    },
                    "indices" : 15,
                    "material" : 0
                }
            ]
        }
    ],
    "textures" : [
        {
            "sampler" : 0,
            "source" : 0
        }
    ],
    "images" : [
        {
            "bufferView" : 4,
            "mimeType" : "image/png",
            "name" : "Image_0"
        }
    ],
    "accessors" : [
        {
            "bufferView" : 0,
            "componentType" : 5126,
            "count" : 653,
            "max" : [
                1,
                0.9999997019767761,
                -0.005196571350097656
            ],
            "min" : [
                -1,
                -1.000000238418579,
                -2.018345832824707
            ],
            "type" : "VEC3"
        },
        {
            "bufferView" : 1,
            "componentType" : 5126,
            "count" : 653,
            "type" : "VEC3"
        },
        {
            "bufferView" : 2,
            "componentType" : 5126,
            "count" : 653,
            "type" : "VEC2"
        },
        {
            "bufferView" : 3,
            "componentType" : 5123,
            "count" : 840,
            "type" : "SCALAR"
        },
        {
            "bufferView" : 5,
            "componentType" : 5126,
            "count" : 346,
            "max" : [
                0.969219982624054,
                0.7392048835754395,
                1.7163283824920654
            ],
            "min" : [
                -0.9791139364242554,
                -0.6925125122070312,
                0.25781530141830444
            ],
            "type" : "VEC3"
        },
        {
            "bufferView" : 6,
            "componentType" : 5126,
            "count" : 346,
            "type" : "VEC3"
        },
        {
            "bufferView" : 7,
            "componentType" : 5126,
            "count" : 346,
            "type" : "VEC2"
        },
        {
            "bufferView" : 8,
            "componentType" : 5123,
            "count" : 432,
            "type" : "SCALAR"
        },
        {
            "bufferView" : 9,
            "componentType" : 5126,
            "count" : 358,
            "max" : [
                1.9692199230194092,
                0.7392048835754395,
                0.7163283824920654
            ],
            "min" : [
                0.02088606357574463,
                -0.6925125122070312,
                -0.7421846389770508
            ],
            "type" : "VEC3"
        },
        {
            "bufferView" : 10,
            "componentType" : 5126,
            "count" : 358,
            "type" : "VEC3"
        },
        {
            "bufferView" : 11,
            "componentType" : 5126,
            "count" : 358,
            "type" : "VEC2"
        },
        {
            "bufferView" : 12,
            "componentType" : 5123,
            "count" : 432,
            "type" : "SCALAR"
        },
        {
            "bufferView" : 13,
            "componentType" : 5126,
            "count" : 360,
            "max" : [
                0.9692201614379883,
                0.7392048239707947,
                -0.28367137908935547
            ],
            "min" : [
                -0.979113757610321,
                -0.692512571811676,
                -1.7421844005584717
            ],
            "type" : "VEC3"
        },
        {
            "bufferView" : 14,
            "componentType" : 5126,
            "count" : 360,
            "type" : "VEC3"
        },
        {
            "bufferView" : 15,
            "componentType" : 5126,
            "count" : 360,
            "type" : "VEC2"
        },
        {
            "bufferView" : 16,
            "componentType" : 5123,
            "count" : 432,
            "type" : "SCALAR"
        }
    ],
    "bufferViews" : [
        {
            "buffer" : 0,
            "byteLength" : 7836,
            "byteOffset" : 0
        },
        {
            "buffer" : 0,
            "byteLength" : 7836,
            "byteOffset" : 7836
        },
        {
            "buffer" : 0,
            "byteLength" : 5224,
            "byteOffset" : 15672
        },
        {
            "buffer" : 0,
            "byteLength" : 1680,
            "byteOffset" : 20896
        },
        {
            "buffer" : 0,
            "byteLength" : 289,
            "byteOffset" : 22576
        },
        {
            "buffer" : 0,
            "byteLength" : 4152,
            "byteOffset" : 22868
        },
        {
            "buffer" : 0,
            "byteLength" : 4152,
            "byteOffset" : 27020
        },
        {
            "buffer" : 0,
            "byteLength" : 2768,
            "byteOffset" : 31172
        },
        {
            "buffer" : 0,
            "byteLength" : 864,
            "byteOffset" : 33940
        },
        {
            "buffer" : 0,
            "byteLength" : 4296,
            "byteOffset" : 34804
        },
        {
            "buffer" : 0,
            "byteLength" : 4296,
            "byteOffset" : 39100
        },
        {
            "buffer" : 0,
            "byteLength" : 2864,
            "byteOffset" : 43396
        },
        {
            "buffer" : 0,
            "byteLength" : 864,
            "byteOffset" : 46260
        },
        {
            "buffer" : 0,
            "byteLength" : 4320,
            "byteOffset" : 47124
        },
        {
            "buffer" : 0,
            "byteLength" : 4320,
            "byteOffset" : 51444
        },
        {
            "buffer" : 0,
            "byteLength" : 2880,
            "byteOffset" : 55764
        },
        {
            "buffer" : 0,
            "byteLength" : 864,
            "byteOffset" : 58644
        }
    ],
    "samplers" : [
        {
            "magFilter" : 9728,
            "minFilter" : 9984
        }
    ],
    "buffers" : [
        {
            "byteLength" : 59508,
            "uri" : "data:application/octet-stream;base64,"
        }
    ]
}
