{
    "asset" : {
        "generator" : "Khronos glTF Blender I/O v1.0.5",
        "version" : "2.0"
    },
    "scene" : 0,
    "scenes" : [
        {
            "name" : "Scene",
            "nodes" : [
                0,
                1
            ]
        }
    ],
    "nodes" : [
        {
            "mesh" : 0,
            "name" : "scianki",
            "rotation" : [
                0,
                1,
                0,
                -1.6292068494294654e-07
            ],
            "scale" : [
                1,
                1.5,
                1
            ]
        },
        {
            "mesh" : 1,
            "name" : "siatka"
        }
    ],
    "materials" : [
        {
            "doubleSided" : true,
            "name" : "Material",
            "pbrMetallicRoughness" : {
                "baseColorTexture" : {
                    "index" : 0,
                    "texCoord" : 0
                },
                "metallicFactor" : 0,
                "roughnessFactor" : 0.5
            }
        }
    ],
    "meshes" : [
        {
            "name" : "Cube.030",
            "primitives" : [
                {
                    "attributes" : {
                        "POSITION" : 0,
                        "NORMAL" : 1,
                        "TEXCOORD_0" : 2
                    },
                    "indices" : 3,
                    "material" : 0
                }
            ]
        },
        {
            "name" : "Cube.036",
            "primitives" : [
                {
                    "attributes" : {
                        "POSITION" : 4,
                        "NORMAL" : 5,
                        "TEXCOORD_0" : 6
                    },
                    "indices" : 7,
                    "material" : 0
                }
            ]
        }
    ],
    "textures" : [
        {
            "source" : 0
        }
    ],
    "images" : [
        {
            "bufferView" : 4,
            "mimeType" : "image/png",
            "name" : "color_palette_001_02_extended"
        }
    ],
    "accessors" : [
        {
            "bufferView" : 0,
            "componentType" : 5126,
            "count" : 1115,
            "max" : [
                0.19435910880565643,
                2.0533080101013184,
                1
            ],
            "min" : [
                -0.19435882568359375,
                0.012497186660766602,
                -1
            ],
            "type" : "VEC3"
        },
        {
            "bufferView" : 1,
            "componentType" : 5126,
            "count" : 1115,
            "type" : "VEC3"
        },
        {
            "bufferView" : 2,
            "componentType" : 5126,
            "count" : 1115,
            "type" : "VEC2"
        },
        {
            "bufferView" : 3,
            "componentType" : 5123,
            "count" : 2160,
            "type" : "SCALAR"
        },
        {
            "bufferView" : 5,
            "componentType" : 5126,
            "count" : 1040,
            "max" : [
                -0.00426560640335083,
                3.0807182788848877,
                0.8670337200164795
            ],
            "min" : [
                -0.01230207085609436,
                0.06040000915527344,
                -0.867040753364563
            ],
            "type" : "VEC3"
        },
        {
            "bufferView" : 6,
            "componentType" : 5126,
            "count" : 1040,
            "type" : "VEC3"
        },
        {
            "bufferView" : 7,
            "componentType" : 5126,
            "count" : 1040,
            "type" : "VEC2"
        },
        {
            "bufferView" : 8,
            "componentType" : 5123,
            "count" : 1560,
            "type" : "SCALAR"
        }
    ],
    "bufferViews" : [
        {
            "buffer" : 0,
            "byteLength" : 13380,
            "byteOffset" : 0
        },
        {
            "buffer" : 0,
            "byteLength" : 13380,
            "byteOffset" : 13380
        },
        {
            "buffer" : 0,
            "byteLength" : 8920,
            "byteOffset" : 26760
        },
        {
            "buffer" : 0,
            "byteLength" : 4320,
            "byteOffset" : 35680
        },
        {
            "buffer" : 0,
            "byteLength" : 3051,
            "byteOffset" : 40000
        },
        {
            "buffer" : 0,
            "byteLength" : 12480,
            "byteOffset" : 43052
        },
        {
            "buffer" : 0,
            "byteLength" : 12480,
            "byteOffset" : 55532
        },
        {
            "buffer" : 0,
            "byteLength" : 8320,
            "byteOffset" : 68012
        },
        {
            "buffer" : 0,
            "byteLength" : 3120,
            "byteOffset" : 76332
        }
    ],
    "buffers" : [
        {
            "byteLength" : 79452,
            "uri" : "data:application/octet-stream;base64,"
        }
    ]
}
