{
    "asset" : {
        "generator" : "Khronos glTF Blender I/O v1.0.5",
        "version" : "2.0"
    },
    "scene" : 0,
    "scenes" : [
        {
            "name" : "Scene",
            "nodes" : [
                0
            ]
        }
    ],
    "nodes" : [
        {
            "mesh" : 0,
            "name" : "blacha 2"
        }
    ],
    "materials" : [
        {
            "doubleSided" : true,
            "name" : "Material",
            "pbrMetallicRoughness" : {
                "baseColorTexture" : {
                    "index" : 0,
                    "texCoord" : 0
                },
                "metallicFactor" : 0,
                "roughnessFactor" : 0.4000000059604645
            }
        }
    ],
    "meshes" : [
        {
            "name" : "Cube.034",
            "primitives" : [
                {
                    "attributes" : {
                        "POSITION" : 0,
                        "NORMAL" : 1,
                        "TEXCOORD_0" : 2
                    },
                    "indices" : 3,
                    "material" : 0
                }
            ]
        }
    ],
    "textures" : [
        {
            "source" : 0
        }
    ],
    "images" : [
        {
            "bufferView" : 4,
            "mimeType" : "image/png",
            "name" : "color_palette_001_02_extended"
        }
    ],
    "accessors" : [
        {
            "bufferView" : 0,
            "componentType" : 5126,
            "count" : 632,
            "max" : [
                0.9637445211410522,
                1.8274743556976318,
                1.0482547283172607
            ],
            "min" : [
                -1.0439536571502686,
                -0.09808851033449173,
                -1.066642165184021
            ],
            "type" : "VEC3"
        },
        {
            "bufferView" : 1,
            "componentType" : 5126,
            "count" : 632,
            "type" : "VEC3"
        },
        {
            "bufferView" : 2,
            "componentType" : 5126,
            "count" : 632,
            "type" : "VEC2"
        },
        {
            "bufferView" : 3,
            "componentType" : 5123,
            "count" : 948,
            "type" : "SCALAR"
        }
    ],
    "bufferViews" : [
        {
            "buffer" : 0,
            "byteLength" : 7584,
            "byteOffset" : 0
        },
        {
            "buffer" : 0,
            "byteLength" : 7584,
            "byteOffset" : 7584
        },
        {
            "buffer" : 0,
            "byteLength" : 5056,
            "byteOffset" : 15168
        },
        {
            "buffer" : 0,
            "byteLength" : 1896,
            "byteOffset" : 20224
        },
        {
            "buffer" : 0,
            "byteLength" : 3051,
            "byteOffset" : 22120
        }
    ],
    "buffers" : [
        {
            "byteLength" : 25172,
            "uri" : "data:application/octet-stream;base64,"
        }
    ]
}
