{
    "asset" : {
        "generator" : "Khronos glTF Blender I/O v1.1.22",
        "version" : "2.0"
    },
    "scene" : 0,
    "scenes" : [
        {
            "name" : "Scene",
            "nodes" : [
                0
            ]
        }
    ],
    "nodes" : [
        {
            "mesh" : 0,
            "name" : "metalowa_zakret.004",
            "rotation" : [
                0.7071067094802856,
                0,
                -0.7071068286895752,
                -8.964985909187817e-08
            ],
            "scale" : [
                1,
                1,
                -1
            ]
        }
    ],
    "materials" : [
        {
            "doubleSided" : true,
            "emissiveFactor" : [
                0,
                0,
                0
            ],
            "name" : "Material.009",
            "pbrMetallicRoughness" : {
                "baseColorTexture" : {
                    "index" : 0,
                    "texCoord" : 0
                },
                "metallicFactor" : 0,
                "roughnessFactor" : 0.4000000059604645
            }
        }
    ],
    "meshes" : [
        {
            "name" : "Cube.007",
            "primitives" : [
                {
                    "attributes" : {
                        "POSITION" : 0,
                        "NORMAL" : 1,
                        "TEXCOORD_0" : 2
                    },
                    "indices" : 3,
                    "material" : 0
                }
            ]
        }
    ],
    "textures" : [
        {
            "source" : 0
        }
    ],
    "images" : [
        {
            "bufferView" : 4,
            "mimeType" : "image/png",
            "name" : "Image_0"
        }
    ],
    "accessors" : [
        {
            "bufferView" : 0,
            "componentType" : 5126,
            "count" : 3573,
            "max" : [
                1.0094890594482422,
                -1.1920928955078125e-07,
                1.0219213962554932
            ],
            "min" : [
                -0.9999997615814209,
                -1.7125656604766846,
                -1
            ],
            "type" : "VEC3"
        },
        {
            "bufferView" : 1,
            "componentType" : 5126,
            "count" : 3573,
            "type" : "VEC3"
        },
        {
            "bufferView" : 2,
            "componentType" : 5126,
            "count" : 3573,
            "type" : "VEC2"
        },
        {
            "bufferView" : 3,
            "componentType" : 5123,
            "count" : 3756,
            "type" : "SCALAR"
        }
    ],
    "bufferViews" : [
        {
            "buffer" : 0,
            "byteLength" : 42876,
            "byteOffset" : 0
        },
        {
            "buffer" : 0,
            "byteLength" : 42876,
            "byteOffset" : 42876
        },
        {
            "buffer" : 0,
            "byteLength" : 28584,
            "byteOffset" : 85752
        },
        {
            "buffer" : 0,
            "byteLength" : 7512,
            "byteOffset" : 114336
        },
        {
            "buffer" : 0,
            "byteLength" : 368,
            "byteOffset" : 121848
        }
    ],
    "buffers" : [
        {
            "byteLength" : 122216,
            "uri" : "data:application/octet-stream;base64,"
        }
    ]
}
