{
    "asset" : {
        "generator" : "Khronos glTF Blender I/O v1.1.22",
        "version" : "2.0"
    },
    "scene" : 0,
    "scenes" : [
        {
            "name" : "Scene",
            "nodes" : [
                0
            ]
        }
    ],
    "nodes" : [
        {
            "mesh" : 0,
            "name" : "skret w dol",
            "rotation" : [
                0.5,
                0.5000000596046448,
                -0.5,
                0.4999999403953552
            ]
        }
    ],
    "materials" : [
        {
            "doubleSided" : true,
            "emissiveFactor" : [
                0,
                0,
                0
            ],
            "name" : "Material.002",
            "pbrMetallicRoughness" : {
                "baseColorTexture" : {
                    "index" : 0,
                    "texCoord" : 0
                },
                "metallicFactor" : 0,
                "roughnessFactor" : 0.4000000059604645
            }
        }
    ],
    "meshes" : [
        {
            "name" : "Cube.035",
            "primitives" : [
                {
                    "attributes" : {
                        "POSITION" : 0,
                        "NORMAL" : 1,
                        "TEXCOORD_0" : 2
                    },
                    "indices" : 3,
                    "material" : 0
                }
            ]
        }
    ],
    "textures" : [
        {
            "source" : 0
        }
    ],
    "images" : [
        {
            "bufferView" : 4,
            "mimeType" : "image/png",
            "name" : "Image_0"
        }
    ],
    "accessors" : [
        {
            "bufferView" : 0,
            "componentType" : 5126,
            "count" : 1849,
            "max" : [
                1.000000238418579,
                1,
                1.1920928955078125e-07
            ],
            "min" : [
                -0.9999997615814209,
                -1.0135103464126587,
                -1.6649020910263062
            ],
            "type" : "VEC3"
        },
        {
            "bufferView" : 1,
            "componentType" : 5126,
            "count" : 1849,
            "type" : "VEC3"
        },
        {
            "bufferView" : 2,
            "componentType" : 5126,
            "count" : 1849,
            "type" : "VEC2"
        },
        {
            "bufferView" : 3,
            "componentType" : 5123,
            "count" : 2130,
            "type" : "SCALAR"
        }
    ],
    "bufferViews" : [
        {
            "buffer" : 0,
            "byteLength" : 22188,
            "byteOffset" : 0
        },
        {
            "buffer" : 0,
            "byteLength" : 22188,
            "byteOffset" : 22188
        },
        {
            "buffer" : 0,
            "byteLength" : 14792,
            "byteOffset" : 44376
        },
        {
            "buffer" : 0,
            "byteLength" : 4260,
            "byteOffset" : 59168
        },
        {
            "buffer" : 0,
            "byteLength" : 368,
            "byteOffset" : 63428
        }
    ],
    "buffers" : [
        {
            "byteLength" : 63796,
            "uri" : "data:application/octet-stream;base64,"
        }
    ]
}
