{
    "asset" : {
        "generator" : "Khronos glTF Blender I/O v1.1.22",
        "version" : "2.0"
    },
    "scene" : 0,
    "scenes" : [
        {
            "name" : "Scene",
            "nodes" : [
                0
            ]
        }
    ],
    "nodes" : [
        {
            "mesh" : 0,
            "name" : "metalowa.004",
            "rotation" : [
                0.5,
                0.5000000596046448,
                -0.5,
                0.4999999403953552
            ]
        }
    ],
    "materials" : [
        {
            "doubleSided" : true,
            "emissiveFactor" : [
                0,
                0,
                0
            ],
            "name" : "Material.004",
            "pbrMetallicRoughness" : {
                "baseColorTexture" : {
                    "index" : 0,
                    "texCoord" : 0
                },
                "metallicFactor" : 0,
                "roughnessFactor" : 0.4000000059604645
            }
        }
    ],
    "meshes" : [
        {
            "name" : "Cube.034",
            "primitives" : [
                {
                    "attributes" : {
                        "POSITION" : 0,
                        "NORMAL" : 1,
                        "TEXCOORD_0" : 2
                    },
                    "indices" : 3,
                    "material" : 0
                }
            ]
        }
    ],
    "textures" : [
        {
            "source" : 0
        }
    ],
    "images" : [
        {
            "bufferView" : 4,
            "mimeType" : "image/png",
            "name" : "Image_0"
        }
    ],
    "accessors" : [
        {
            "bufferView" : 0,
            "componentType" : 5126,
            "count" : 1476,
            "max" : [
                0.6047982573509216,
                0.9998079538345337,
                -0.0022927522659301758
            ],
            "min" : [
                -0.6047977805137634,
                -1.0135102272033691,
                -1.4297752380371094
            ],
            "type" : "VEC3"
        },
        {
            "bufferView" : 1,
            "componentType" : 5126,
            "count" : 1476,
            "type" : "VEC3"
        },
        {
            "bufferView" : 2,
            "componentType" : 5126,
            "count" : 1476,
            "type" : "VEC2"
        },
        {
            "bufferView" : 3,
            "componentType" : 5123,
            "count" : 1488,
            "type" : "SCALAR"
        }
    ],
    "bufferViews" : [
        {
            "buffer" : 0,
            "byteLength" : 17712,
            "byteOffset" : 0
        },
        {
            "buffer" : 0,
            "byteLength" : 17712,
            "byteOffset" : 17712
        },
        {
            "buffer" : 0,
            "byteLength" : 11808,
            "byteOffset" : 35424
        },
        {
            "buffer" : 0,
            "byteLength" : 2976,
            "byteOffset" : 47232
        },
        {
            "buffer" : 0,
            "byteLength" : 368,
            "byteOffset" : 50208
        }
    ],
    "buffers" : [
        {
            "byteLength" : 50576,
            "uri" : "data:application/octet-stream;base64,"
        }
    ]
}
