{
    "asset" : {
        "generator" : "Khronos glTF Blender I/O v1.0.5",
        "version" : "2.0"
    },
    "scene" : 0,
    "scenes" : [
        {
            "name" : "Scene",
            "nodes" : [
                0
            ]
        }
    ],
    "nodes" : [
        {
            "mesh" : 0,
            "name" : "drzewo",
            "scale" : [
                0.18171587586402893,
                0.18171587586402893,
                0.18171587586402893
            ]
        }
    ],
    "materials" : [
        {
            "doubleSided" : true,
            "name" : "Material",
            "pbrMetallicRoughness" : {
                "baseColorTexture" : {
                    "index" : 0,
                    "texCoord" : 0
                },
                "metallicFactor" : 0,
                "roughnessFactor" : 0.4000000059604645
            }
        }
    ],
    "meshes" : [
        {
            "name" : "Cylinder",
            "primitives" : [
                {
                    "attributes" : {
                        "POSITION" : 0,
                        "NORMAL" : 1,
                        "TEXCOORD_0" : 2
                    },
                    "indices" : 3,
                    "material" : 0
                }
            ]
        }
    ],
    "textures" : [
        {
            "source" : 0
        }
    ],
    "images" : [
        {
            "bufferView" : 4,
            "mimeType" : "image/png",
            "name" : "color_palette_001_02_extended"
        }
    ],
    "accessors" : [
        {
            "bufferView" : 0,
            "componentType" : 5126,
            "count" : 1100,
            "max" : [
                3.57528018951416,
                35.9390983581543,
                3.21775221824646
            ],
            "min" : [
                -3.167757034301758,
                -1.1451419591903687,
                -3.05255126953125
            ],
            "type" : "VEC3"
        },
        {
            "bufferView" : 1,
            "componentType" : 5126,
            "count" : 1100,
            "type" : "VEC3"
        },
        {
            "bufferView" : 2,
            "componentType" : 5126,
            "count" : 1100,
            "type" : "VEC2"
        },
        {
            "bufferView" : 3,
            "componentType" : 5123,
            "count" : 1692,
            "type" : "SCALAR"
        }
    ],
    "bufferViews" : [
        {
            "buffer" : 0,
            "byteLength" : 13200,
            "byteOffset" : 0
        },
        {
            "buffer" : 0,
            "byteLength" : 13200,
            "byteOffset" : 13200
        },
        {
            "buffer" : 0,
            "byteLength" : 8800,
            "byteOffset" : 26400
        },
        {
            "buffer" : 0,
            "byteLength" : 3384,
            "byteOffset" : 35200
        },
        {
            "buffer" : 0,
            "byteLength" : 3051,
            "byteOffset" : 38584
        }
    ],
    "buffers" : [
        {
            "byteLength" : 41636,
            "uri" : "data:application/octet-stream;base64,"
        }
    ]
}
