{
    "asset" : {
        "generator" : "Khronos glTF Blender I/O v1.0.5",
        "version" : "2.0"
    },
    "scene" : 0,
    "scenes" : [
        {
            "name" : "Scene",
            "nodes" : [
                0
            ]
        }
    ],
    "nodes" : [
        {
            "mesh" : 0,
            "name" : "scianki.001",
            "rotation" : [
                0,
                1,
                0,
                -1.6292068494294654e-07
            ]
        }
    ],
    "materials" : [
        {
            "doubleSided" : true,
            "name" : "Material",
            "pbrMetallicRoughness" : {
                "baseColorTexture" : {
                    "index" : 0,
                    "texCoord" : 0
                },
                "metallicFactor" : 0,
                "roughnessFactor" : 0.4000000059604645
            }
        }
    ],
    "meshes" : [
        {
            "name" : "Cube.059",
            "primitives" : [
                {
                    "attributes" : {
                        "POSITION" : 0,
                        "NORMAL" : 1,
                        "TEXCOORD_0" : 2
                    },
                    "indices" : 3,
                    "material" : 0
                }
            ]
        }
    ],
    "textures" : [
        {
            "source" : 0
        }
    ],
    "images" : [
        {
            "bufferView" : 4,
            "mimeType" : "image/png",
            "name" : "color_palette_001_02_extended"
        }
    ],
    "accessors" : [
        {
            "bufferView" : 0,
            "componentType" : 5126,
            "count" : 2771,
            "max" : [
                0.19435915350914001,
                1.1920928955078125e-07,
                1
            ],
            "min" : [
                -0.19435882568359375,
                -2,
                -1.0000001192092896
            ],
            "type" : "VEC3"
        },
        {
            "bufferView" : 1,
            "componentType" : 5126,
            "count" : 2771,
            "type" : "VEC3"
        },
        {
            "bufferView" : 2,
            "componentType" : 5126,
            "count" : 2771,
            "type" : "VEC2"
        },
        {
            "bufferView" : 3,
            "componentType" : 5123,
            "count" : 4890,
            "type" : "SCALAR"
        }
    ],
    "bufferViews" : [
        {
            "buffer" : 0,
            "byteLength" : 33252,
            "byteOffset" : 0
        },
        {
            "buffer" : 0,
            "byteLength" : 33252,
            "byteOffset" : 33252
        },
        {
            "buffer" : 0,
            "byteLength" : 22168,
            "byteOffset" : 66504
        },
        {
            "buffer" : 0,
            "byteLength" : 9780,
            "byteOffset" : 88672
        },
        {
            "buffer" : 0,
            "byteLength" : 3051,
            "byteOffset" : 98452
        }
    ],
    "buffers" : [
        {
            "byteLength" : 101504,
            "uri" : "data:application/octet-stream;base64,"
        }
    ]
}
