{
    "asset" : {
        "generator" : "Khronos glTF Blender I/O v1.1.22",
        "version" : "2.0"
    },
    "scene" : 0,
    "scenes" : [
        {
            "name" : "Scene",
            "nodes" : [
                0
            ]
        }
    ],
    "nodes" : [
        {
            "name" : "Empty"
        }
    ],
    "animations" : [
        {
            "channels" : [
                {
                    "sampler" : 0,
                    "target" : {
                        "node" : 0,
                        "path" : "translation"
                    }
                },
                {
                    "sampler" : 1,
                    "target" : {
                        "node" : 0,
                        "path" : "rotation"
                    }
                }
            ],
            "name" : "EmptyAction.003",
            "samplers" : [
                {
                    "input" : 0,
                    "interpolation" : "LINEAR",
                    "output" : 1
                },
                {
                    "input" : 0,
                    "interpolation" : "LINEAR",
                    "output" : 2
                }
            ]
        }
    ],
    "accessors" : [
        {
            "bufferView" : 0,
            "componentType" : 5126,
            "count" : 295,
            "max" : [
                12.416666666666666
            ],
            "min" : [
                0.16666666666666666
            ],
            "type" : "SCALAR"
        },
        {
            "bufferView" : 1,
            "componentType" : 5126,
            "count" : 295,
            "type" : "VEC3"
        },
        {
            "bufferView" : 2,
            "componentType" : 5126,
            "count" : 295,
            "type" : "VEC4"
        }
    ],
    "bufferViews" : [
        {
            "buffer" : 0,
            "byteLength" : 1180,
            "byteOffset" : 0
        },
        {
            "buffer" : 0,
            "byteLength" : 3540,
            "byteOffset" : 1180
        },
        {
            "buffer" : 0,
            "byteLength" : 4720,
            "byteOffset" : 4720
        }
    ],
    "buffers" : [
        {
            "byteLength" : 9440,
            "uri" : "data:application/octet-stream;base64,"
        }
    ]
}
