{
    "asset" : {
        "generator" : "Khronos glTF Blender I/O v1.0.5",
        "version" : "2.0"
    },
    "scene" : 0,
    "scenes" : [
        {
            "name" : "Scene",
            "nodes" : [
                0,
                1,
                2
            ]
        }
    ],
    "nodes" : [
        {
            "mesh" : 0,
            "name" : "przycisk oslonka"
        },
        {
            "mesh" : 1,
            "name" : "przycisk"
        },
        {
            "mesh" : 2,
            "name" : "sciana na przycisk",
            "rotation" : [
                0,
                1,
                0,
                -1.6292068494294654e-07
            ]
        }
    ],
    "materials" : [
        {
            "doubleSided" : true,
            "name" : "Material",
            "pbrMetallicRoughness" : {
                "baseColorTexture" : {
                    "index" : 0,
                    "texCoord" : 0
                },
                "metallicFactor" : 0,
                "roughnessFactor" : 0.4000000059604645
            }
        }
    ],
    "meshes" : [
        {
            "name" : "Cube.062",
            "primitives" : [
                {
                    "attributes" : {
                        "POSITION" : 0,
                        "NORMAL" : 1,
                        "TEXCOORD_0" : 2
                    },
                    "indices" : 3,
                    "material" : 0
                }
            ]
        },
        {
            "name" : "Cube.064",
            "primitives" : [
                {
                    "attributes" : {
                        "POSITION" : 4,
                        "NORMAL" : 5,
                        "TEXCOORD_0" : 6
                    },
                    "indices" : 7,
                    "material" : 0
                }
            ]
        },
        {
            "name" : "Cube.021",
            "primitives" : [
                {
                    "attributes" : {
                        "POSITION" : 8,
                        "NORMAL" : 9,
                        "TEXCOORD_0" : 10
                    },
                    "indices" : 11,
                    "material" : 0
                }
            ]
        }
    ],
    "textures" : [
        {
            "source" : 0
        }
    ],
    "images" : [
        {
            "bufferView" : 4,
            "mimeType" : "image/png",
            "name" : "color_palette_001_02_extended"
        }
    ],
    "accessors" : [
        {
            "bufferView" : 0,
            "componentType" : 5126,
            "count" : 110,
            "max" : [
                1.1116888523101807,
                1.2188341617584229,
                0.21580159664154053
            ],
            "min" : [
                0.948091983795166,
                0.753828763961792,
                -0.24920368194580078
            ],
            "type" : "VEC3"
        },
        {
            "bufferView" : 1,
            "componentType" : 5126,
            "count" : 110,
            "type" : "VEC3"
        },
        {
            "bufferView" : 2,
            "componentType" : 5126,
            "count" : 110,
            "type" : "VEC2"
        },
        {
            "bufferView" : 3,
            "componentType" : 5123,
            "count" : 180,
            "type" : "SCALAR"
        },
        {
            "bufferView" : 5,
            "componentType" : 5126,
            "count" : 52,
            "max" : [
                1.3160231113433838,
                1.110107660293579,
                0.10707517713308334
            ],
            "min" : [
                1.0650883913040161,
                0.8625552654266357,
                -0.14047721028327942
            ],
            "type" : "VEC3"
        },
        {
            "bufferView" : 6,
            "componentType" : 5126,
            "count" : 52,
            "type" : "VEC3"
        },
        {
            "bufferView" : 7,
            "componentType" : 5126,
            "count" : 52,
            "type" : "VEC2"
        },
        {
            "bufferView" : 8,
            "componentType" : 5123,
            "count" : 108,
            "type" : "SCALAR"
        },
        {
            "bufferView" : 9,
            "componentType" : 5126,
            "count" : 547,
            "max" : [
                1.0000003576278687,
                2.0192973613739014,
                1.0000003576278687
            ],
            "min" : [
                -1.102736234664917,
                0.012497186660766602,
                -1.0000003576278687
            ],
            "type" : "VEC3"
        },
        {
            "bufferView" : 10,
            "componentType" : 5126,
            "count" : 547,
            "type" : "VEC3"
        },
        {
            "bufferView" : 11,
            "componentType" : 5126,
            "count" : 547,
            "type" : "VEC2"
        },
        {
            "bufferView" : 12,
            "componentType" : 5123,
            "count" : 906,
            "type" : "SCALAR"
        }
    ],
    "bufferViews" : [
        {
            "buffer" : 0,
            "byteLength" : 1320,
            "byteOffset" : 0
        },
        {
            "buffer" : 0,
            "byteLength" : 1320,
            "byteOffset" : 1320
        },
        {
            "buffer" : 0,
            "byteLength" : 880,
            "byteOffset" : 2640
        },
        {
            "buffer" : 0,
            "byteLength" : 360,
            "byteOffset" : 3520
        },
        {
            "buffer" : 0,
            "byteLength" : 3051,
            "byteOffset" : 3880
        },
        {
            "buffer" : 0,
            "byteLength" : 624,
            "byteOffset" : 6932
        },
        {
            "buffer" : 0,
            "byteLength" : 624,
            "byteOffset" : 7556
        },
        {
            "buffer" : 0,
            "byteLength" : 416,
            "byteOffset" : 8180
        },
        {
            "buffer" : 0,
            "byteLength" : 216,
            "byteOffset" : 8596
        },
        {
            "buffer" : 0,
            "byteLength" : 6564,
            "byteOffset" : 8812
        },
        {
            "buffer" : 0,
            "byteLength" : 6564,
            "byteOffset" : 15376
        },
        {
            "buffer" : 0,
            "byteLength" : 4376,
            "byteOffset" : 21940
        },
        {
            "buffer" : 0,
            "byteLength" : 1812,
            "byteOffset" : 26316
        }
    ],
    "buffers" : [
        {
            "byteLength" : 28128,
            "uri" : "data:application/octet-stream;base64,"
        }
    ]
}
