{
    "asset" : {
        "generator" : "Khronos glTF Blender I/O v1.0.5",
        "version" : "2.0"
    },
    "scene" : 0,
    "scenes" : [
        {
            "name" : "Scene",
            "nodes" : [
                0
            ]
        }
    ],
    "nodes" : [
        {
            "mesh" : 0,
            "name" : "basic_cube.010"
        }
    ],
    "materials" : [
        {
            "doubleSided" : true,
            "name" : "Material",
            "pbrMetallicRoughness" : {
                "baseColorTexture" : {
                    "index" : 0,
                    "texCoord" : 0
                },
                "metallicFactor" : 0,
                "roughnessFactor" : 0.4000000059604645
            }
        }
    ],
    "meshes" : [
        {
            "name" : "Cube.021",
            "primitives" : [
                {
                    "attributes" : {
                        "POSITION" : 0,
                        "NORMAL" : 1,
                        "TEXCOORD_0" : 2
                    },
                    "indices" : 3,
                    "material" : 0
                }
            ]
        }
    ],
    "textures" : [
        {
            "source" : 0
        }
    ],
    "images" : [
        {
            "bufferView" : 4,
            "mimeType" : "image/png",
            "name" : "color_palette_001_02_extended"
        }
    ],
    "accessors" : [
        {
            "bufferView" : 0,
            "componentType" : 5126,
            "count" : 453,
            "max" : [
                1.000042200088501,
                -0.0076397559605538845,
                1.0020482540130615
            ],
            "min" : [
                -1.0007957220077515,
                -1.9936878681182861,
                -0.9992766380310059
            ],
            "type" : "VEC3"
        },
        {
            "bufferView" : 1,
            "componentType" : 5126,
            "count" : 453,
            "type" : "VEC3"
        },
        {
            "bufferView" : 2,
            "componentType" : 5126,
            "count" : 453,
            "type" : "VEC2"
        },
        {
            "bufferView" : 3,
            "componentType" : 5123,
            "count" : 453,
            "type" : "SCALAR"
        }
    ],
    "bufferViews" : [
        {
            "buffer" : 0,
            "byteLength" : 5436,
            "byteOffset" : 0
        },
        {
            "buffer" : 0,
            "byteLength" : 5436,
            "byteOffset" : 5436
        },
        {
            "buffer" : 0,
            "byteLength" : 3624,
            "byteOffset" : 10872
        },
        {
            "buffer" : 0,
            "byteLength" : 906,
            "byteOffset" : 14496
        },
        {
            "buffer" : 0,
            "byteLength" : 3051,
            "byteOffset" : 15404
        }
    ],
    "buffers" : [
        {
            "byteLength" : 18456,
            "uri" : "data:application/octet-stream;base64,"
        }
    ]
}
