{
    "asset" : {
        "generator" : "Khronos glTF Blender I/O v1.0.5",
        "version" : "2.0"
    },
    "scene" : 0,
    "scenes" : [
        {
            "name" : "Scene",
            "nodes" : [
                0
            ]
        }
    ],
    "nodes" : [
        {
            "mesh" : 0,
            "name" : "kusza",
            "rotation" : [
                0,
                -0.5193454027175903,
                0,
                0.8545644283294678
            ],
            "scale" : [
                0.18684209883213043,
                0.10633910447359085,
                0.3279452323913574
            ]
        }
    ],
    "materials" : [
        {
            "doubleSided" : true,
            "name" : "palette",
            "pbrMetallicRoughness" : {
                "baseColorTexture" : {
                    "index" : 0,
                    "texCoord" : 0
                },
                "metallicFactor" : 0,
                "roughnessFactor" : 0.4000000059604645
            }
        }
    ],
    "meshes" : [
        {
            "name" : "Cube",
            "primitives" : [
                {
                    "attributes" : {
                        "POSITION" : 0,
                        "NORMAL" : 1,
                        "TEXCOORD_0" : 2
                    },
                    "indices" : 3,
                    "material" : 0
                }
            ]
        }
    ],
    "textures" : [
        {
            "sampler" : 0,
            "source" : 0
        }
    ],
    "images" : [
        {
            "bufferView" : 4,
            "mimeType" : "image/png",
            "name" : "color_palette_001"
        }
    ],
    "accessors" : [
        {
            "bufferView" : 0,
            "componentType" : 5126,
            "count" : 990,
            "max" : [
                4.656588077545166,
                22.879188537597656,
                -0.6895883083343506
            ],
            "min" : [
                -0.2534146308898926,
                15.766096115112305,
                -2.444181203842163
            ],
            "type" : "VEC3"
        },
        {
            "bufferView" : 1,
            "componentType" : 5126,
            "count" : 990,
            "type" : "VEC3"
        },
        {
            "bufferView" : 2,
            "componentType" : 5126,
            "count" : 990,
            "type" : "VEC2"
        },
        {
            "bufferView" : 3,
            "componentType" : 5123,
            "count" : 1500,
            "type" : "SCALAR"
        }
    ],
    "bufferViews" : [
        {
            "buffer" : 0,
            "byteLength" : 11880,
            "byteOffset" : 0
        },
        {
            "buffer" : 0,
            "byteLength" : 11880,
            "byteOffset" : 11880
        },
        {
            "buffer" : 0,
            "byteLength" : 7920,
            "byteOffset" : 23760
        },
        {
            "buffer" : 0,
            "byteLength" : 3000,
            "byteOffset" : 31680
        },
        {
            "buffer" : 0,
            "byteLength" : 1343,
            "byteOffset" : 34680
        }
    ],
    "samplers" : [
        {
            "magFilter" : 9728,
            "minFilter" : 9984
        }
    ],
    "buffers" : [
        {
            "byteLength" : 36024,
            "uri" : "data:application/octet-stream;base64,"
        }
    ]
}
