{
    "asset" : {
        "generator" : "Khronos glTF Blender I/O v1.0.5",
        "version" : "2.0"
    },
    "scene" : 0,
    "scenes" : [
        {
            "name" : "Scene",
            "nodes" : [
                0
            ]
        }
    ],
    "nodes" : [
        {
            "mesh" : 0,
            "name" : "basic_cube.014"
        }
    ],
    "materials" : [
        {
            "doubleSided" : true,
            "name" : "Material",
            "pbrMetallicRoughness" : {
                "baseColorTexture" : {
                    "index" : 0,
                    "texCoord" : 0
                },
                "metallicFactor" : 0,
                "roughnessFactor" : 0.4000000059604645
            }
        }
    ],
    "meshes" : [
        {
            "name" : "Cube.031",
            "primitives" : [
                {
                    "attributes" : {
                        "POSITION" : 0,
                        "NORMAL" : 1,
                        "TEXCOORD_0" : 2
                    },
                    "indices" : 3,
                    "material" : 0
                }
            ]
        }
    ],
    "textures" : [
        {
            "source" : 0
        }
    ],
    "images" : [
        {
            "bufferView" : 4,
            "mimeType" : "image/png",
            "name" : "color_palette_001_02_extended"
        }
    ],
    "accessors" : [
        {
            "bufferView" : 0,
            "componentType" : 5126,
            "count" : 376,
            "max" : [
                0.9684678912162781,
                1.9698859453201294,
                0.11092449724674225
            ],
            "min" : [
                -0.944632351398468,
                0,
                -0.13989318907260895
            ],
            "type" : "VEC3"
        },
        {
            "bufferView" : 1,
            "componentType" : 5126,
            "count" : 376,
            "type" : "VEC3"
        },
        {
            "bufferView" : 2,
            "componentType" : 5126,
            "count" : 376,
            "type" : "VEC2"
        },
        {
            "bufferView" : 3,
            "componentType" : 5123,
            "count" : 564,
            "type" : "SCALAR"
        }
    ],
    "bufferViews" : [
        {
            "buffer" : 0,
            "byteLength" : 4512,
            "byteOffset" : 0
        },
        {
            "buffer" : 0,
            "byteLength" : 4512,
            "byteOffset" : 4512
        },
        {
            "buffer" : 0,
            "byteLength" : 3008,
            "byteOffset" : 9024
        },
        {
            "buffer" : 0,
            "byteLength" : 1128,
            "byteOffset" : 12032
        },
        {
            "buffer" : 0,
            "byteLength" : 3051,
            "byteOffset" : 13160
        }
    ],
    "buffers" : [
        {
            "byteLength" : 16212,
            "uri" : "data:application/octet-stream;base64,"
        }
    ]
}
