{
    "asset" : {
        "generator" : "Khronos glTF Blender I/O v1.1.22",
        "version" : "2.0"
    },
    "scene" : 0,
    "scenes" : [
        {
            "name" : "Scene",
            "nodes" : [
                0
            ]
        }
    ],
    "nodes" : [
        {
            "mesh" : 0,
            "name" : "rura cala",
            "rotation" : [
                0.7071067094802856,
                0,
                -0.7071068286895752,
                -8.964985909187817e-08
            ]
        }
    ],
    "materials" : [
        {
            "doubleSided" : true,
            "emissiveFactor" : [
                0,
                0,
                0
            ],
            "name" : "Material.003",
            "pbrMetallicRoughness" : {
                "baseColorTexture" : {
                    "index" : 0,
                    "texCoord" : 0
                },
                "metallicFactor" : 0,
                "roughnessFactor" : 0.4000000059604645
            }
        }
    ],
    "meshes" : [
        {
            "name" : "Cube.001",
            "primitives" : [
                {
                    "attributes" : {
                        "POSITION" : 0,
                        "NORMAL" : 1,
                        "TEXCOORD_0" : 2
                    },
                    "indices" : 3,
                    "material" : 0
                }
            ]
        }
    ],
    "textures" : [
        {
            "source" : 0
        }
    ],
    "images" : [
        {
            "bufferView" : 4,
            "mimeType" : "image/png",
            "name" : "Image_0"
        }
    ],
    "accessors" : [
        {
            "bufferView" : 0,
            "componentType" : 5126,
            "count" : 3304,
            "max" : [
                1.000000238418579,
                -1.1920928955078125e-07,
                1.0135103464126587
            ],
            "min" : [
                -0.9999998807907104,
                -1.7130907773971558,
                -1.0005098581314087
            ],
            "type" : "VEC3"
        },
        {
            "bufferView" : 1,
            "componentType" : 5126,
            "count" : 3304,
            "type" : "VEC3"
        },
        {
            "bufferView" : 2,
            "componentType" : 5126,
            "count" : 3304,
            "type" : "VEC2"
        },
        {
            "bufferView" : 3,
            "componentType" : 5123,
            "count" : 3552,
            "type" : "SCALAR"
        }
    ],
    "bufferViews" : [
        {
            "buffer" : 0,
            "byteLength" : 39648,
            "byteOffset" : 0
        },
        {
            "buffer" : 0,
            "byteLength" : 39648,
            "byteOffset" : 39648
        },
        {
            "buffer" : 0,
            "byteLength" : 26432,
            "byteOffset" : 79296
        },
        {
            "buffer" : 0,
            "byteLength" : 7104,
            "byteOffset" : 105728
        },
        {
            "buffer" : 0,
            "byteLength" : 368,
            "byteOffset" : 112832
        }
    ],
    "buffers" : [
        {
            "byteLength" : 113200,
            "uri" : "data:application/octet-stream;base64,"
        }
    ]
}
