{
    "asset" : {
        "generator" : "Khronos glTF Blender I/O v1.1.22",
        "version" : "2.0"
    },
    "scene" : 0,
    "scenes" : [
        {
            "name" : "Scene",
            "nodes" : [
                0
            ]
        }
    ],
    "nodes" : [
        {
            "mesh" : 0,
            "name" : "Cube",
            "scale" : [
                0.4076975882053375,
                0.4076976180076599,
                0.4076976180076599
            ]
        }
    ],
    "animations" : [
        {
            "channels" : [
                {
                    "sampler" : 0,
                    "target" : {
                        "node" : 0,
                        "path" : "translation"
                    }
                },
                {
                    "sampler" : 1,
                    "target" : {
                        "node" : 0,
                        "path" : "rotation"
                    }
                }
            ],
            "name" : "CubeAction",
            "samplers" : [
                {
                    "input" : 4,
                    "interpolation" : "LINEAR",
                    "output" : 5
                },
                {
                    "input" : 4,
                    "interpolation" : "LINEAR",
                    "output" : 6
                }
            ]
        }
    ],
    "meshes" : [
        {
            "name" : "Cube.002",
            "primitives" : [
                {
                    "attributes" : {
                        "POSITION" : 0,
                        "NORMAL" : 1,
                        "TEXCOORD_0" : 2
                    },
                    "indices" : 3
                }
            ]
        }
    ],
    "accessors" : [
        {
            "bufferView" : 0,
            "componentType" : 5126,
            "count" : 6427,
            "max" : [
                1.3600000143051147,
                6.299796104431152,
                1
            ],
            "min" : [
                -1.3600000143051147,
                0.006941080093383789,
                -1
            ],
            "type" : "VEC3"
        },
        {
            "bufferView" : 1,
            "componentType" : 5126,
            "count" : 6427,
            "type" : "VEC3"
        },
        {
            "bufferView" : 2,
            "componentType" : 5126,
            "count" : 6427,
            "type" : "VEC2"
        },
        {
            "bufferView" : 3,
            "componentType" : 5123,
            "count" : 14916,
            "type" : "SCALAR"
        },
        {
            "bufferView" : 4,
            "componentType" : 5126,
            "count" : 249,
            "max" : [
                10.375
            ],
            "min" : [
                0.041666666666666664
            ],
            "type" : "SCALAR"
        },
        {
            "bufferView" : 5,
            "componentType" : 5126,
            "count" : 249,
            "type" : "VEC3"
        },
        {
            "bufferView" : 6,
            "componentType" : 5126,
            "count" : 249,
            "type" : "VEC4"
        }
    ],
    "bufferViews" : [
        {
            "buffer" : 0,
            "byteLength" : 77124,
            "byteOffset" : 0
        },
        {
            "buffer" : 0,
            "byteLength" : 77124,
            "byteOffset" : 77124
        },
        {
            "buffer" : 0,
            "byteLength" : 51416,
            "byteOffset" : 154248
        },
        {
            "buffer" : 0,
            "byteLength" : 29832,
            "byteOffset" : 205664
        },
        {
            "buffer" : 0,
            "byteLength" : 996,
            "byteOffset" : 235496
        },
        {
            "buffer" : 0,
            "byteLength" : 2988,
            "byteOffset" : 236492
        },
        {
            "buffer" : 0,
            "byteLength" : 3984,
            "byteOffset" : 239480
        }
    ],
    "buffers" : [
        {
            "byteLength" : 243464,
            "uri" : "data:application/octet-stream;base64,"
        }
    ]
}
