{
    "asset" : {
        "generator" : "Khronos glTF Blender I/O v1.1.22",
        "version" : "2.0"
    },
    "scene" : 0,
    "scenes" : [
        {
            "name" : "Scene",
            "nodes" : [
                0
            ]
        }
    ],
    "nodes" : [
        {
            "mesh" : 0,
            "name" : "Icosphere",
            "translation" : [
                0,
                0.3046264946460724,
                0
            ]
        }
    ],
    "materials" : [
        {
            "doubleSided" : true,
            "emissiveFactor" : [
                0,
                0,
                0
            ],
            "name" : "Material.001",
            "pbrMetallicRoughness" : {
                "baseColorFactor" : [
                    0.33432409167289734,
                    0.33432409167289734,
                    0.33432409167289734,
                    1
                ],
                "metallicFactor" : 0.5,
                "roughnessFactor" : 0.5
            }
        }
    ],
    "meshes" : [
        {
            "name" : "Icosphere",
            "primitives" : [
                {
                    "attributes" : {
                        "POSITION" : 0,
                        "NORMAL" : 1,
                        "TEXCOORD_0" : 2
                    },
                    "indices" : 3,
                    "material" : 0
                }
            ]
        }
    ],
    "accessors" : [
        {
            "bufferView" : 0,
            "componentType" : 5126,
            "count" : 326,
            "max" : [
                0.9304304718971252,
                0.7224283218383789,
                0.8663192987442017
            ],
            "min" : [
                -0.8944250345230103,
                -0.3046264946460724,
                -1.1553285121917725
            ],
            "type" : "VEC3"
        },
        {
            "bufferView" : 1,
            "componentType" : 5126,
            "count" : 326,
            "type" : "VEC3"
        },
        {
            "bufferView" : 2,
            "componentType" : 5126,
            "count" : 326,
            "type" : "VEC2"
        },
        {
            "bufferView" : 3,
            "componentType" : 5123,
            "count" : 432,
            "type" : "SCALAR"
        }
    ],
    "bufferViews" : [
        {
            "buffer" : 0,
            "byteLength" : 3912,
            "byteOffset" : 0
        },
        {
            "buffer" : 0,
            "byteLength" : 3912,
            "byteOffset" : 3912
        },
        {
            "buffer" : 0,
            "byteLength" : 2608,
            "byteOffset" : 7824
        },
        {
            "buffer" : 0,
            "byteLength" : 864,
            "byteOffset" : 10432
        }
    ],
    "buffers" : [
        {
            "byteLength" : 11296,
            "uri" : "data:application/octet-stream;base64,"
        }
    ]
}
