{
    "asset" : {
        "generator" : "Khronos glTF Blender I/O v1.0.5",
        "version" : "2.0"
    },
    "scene" : 0,
    "scenes" : [
        {
            "name" : "Scene",
            "nodes" : [
                0
            ]
        }
    ],
    "nodes" : [
        {
            "mesh" : 0,
            "name" : "drzewo.02",
            "scale" : [
                0.18171587586402893,
                0.18171587586402893,
                0.18171587586402893
            ]
        }
    ],
    "materials" : [
        {
            "doubleSided" : true,
            "name" : "Material",
            "pbrMetallicRoughness" : {
                "baseColorTexture" : {
                    "index" : 0,
                    "texCoord" : 0
                },
                "metallicFactor" : 0,
                "roughnessFactor" : 0.4000000059604645
            }
        }
    ],
    "meshes" : [
        {
            "name" : "Cylinder.001",
            "primitives" : [
                {
                    "attributes" : {
                        "POSITION" : 0,
                        "NORMAL" : 1,
                        "TEXCOORD_0" : 2
                    },
                    "indices" : 3,
                    "material" : 0
                }
            ]
        }
    ],
    "textures" : [
        {
            "source" : 0
        }
    ],
    "images" : [
        {
            "bufferView" : 4,
            "mimeType" : "image/png",
            "name" : "color_palette_001_02_extended"
        }
    ],
    "accessors" : [
        {
            "bufferView" : 0,
            "componentType" : 5126,
            "count" : 892,
            "max" : [
                2.834803819656372,
                25.168041229248047,
                3.21775221824646
            ],
            "min" : [
                -3.174730062484741,
                -1.1451419591903687,
                -2.2908730506896973
            ],
            "type" : "VEC3"
        },
        {
            "bufferView" : 1,
            "componentType" : 5126,
            "count" : 892,
            "type" : "VEC3"
        },
        {
            "bufferView" : 2,
            "componentType" : 5126,
            "count" : 892,
            "type" : "VEC2"
        },
        {
            "bufferView" : 3,
            "componentType" : 5123,
            "count" : 1392,
            "type" : "SCALAR"
        }
    ],
    "bufferViews" : [
        {
            "buffer" : 0,
            "byteLength" : 10704,
            "byteOffset" : 0
        },
        {
            "buffer" : 0,
            "byteLength" : 10704,
            "byteOffset" : 10704
        },
        {
            "buffer" : 0,
            "byteLength" : 7136,
            "byteOffset" : 21408
        },
        {
            "buffer" : 0,
            "byteLength" : 2784,
            "byteOffset" : 28544
        },
        {
            "buffer" : 0,
            "byteLength" : 3051,
            "byteOffset" : 31328
        }
    ],
    "buffers" : [
        {
            "byteLength" : 34380,
            "uri" : "data:application/octet-stream;base64,"
        }
    ]
}
