{
    "asset" : {
        "generator" : "Khronos glTF Blender I/O v1.1.22",
        "version" : "2.0"
    },
    "scene" : 0,
    "scenes" : [
        {
            "name" : "Scene",
            "nodes" : [
                0
            ]
        }
    ],
    "nodes" : [
        {
            "mesh" : 0,
            "name" : "scianki.001",
            "rotation" : [
                0,
                0,
                -1,
                -8.146033536604591e-08
            ]
        }
    ],
    "materials" : [
        {
            "doubleSided" : true,
            "emissiveFactor" : [
                0,
                0,
                0
            ],
            "name" : "Material.003",
            "pbrMetallicRoughness" : {
                "baseColorTexture" : {
                    "index" : 0,
                    "texCoord" : 0
                },
                "metallicFactor" : 0,
                "roughnessFactor" : 0.4000000059604645
            }
        }
    ],
    "meshes" : [
        {
            "name" : "Cube.002",
            "primitives" : [
                {
                    "attributes" : {
                        "POSITION" : 0,
                        "NORMAL" : 1,
                        "TEXCOORD_0" : 2
                    },
                    "indices" : 3,
                    "material" : 0
                }
            ]
        }
    ],
    "textures" : [
        {
            "source" : 0
        }
    ],
    "images" : [
        {
            "bufferView" : 4,
            "mimeType" : "image/png",
            "name" : "Image_0"
        }
    ],
    "accessors" : [
        {
            "bufferView" : 0,
            "componentType" : 5126,
            "count" : 4214,
            "max" : [
                0.19435915350914001,
                0,
                0.9999998211860657
            ],
            "min" : [
                -0.19435882568359375,
                -2,
                -1.000000238418579
            ],
            "type" : "VEC3"
        },
        {
            "bufferView" : 1,
            "componentType" : 5126,
            "count" : 4214,
            "type" : "VEC3"
        },
        {
            "bufferView" : 2,
            "componentType" : 5126,
            "count" : 4214,
            "type" : "VEC2"
        },
        {
            "bufferView" : 3,
            "componentType" : 5123,
            "count" : 4890,
            "type" : "SCALAR"
        }
    ],
    "bufferViews" : [
        {
            "buffer" : 0,
            "byteLength" : 50568,
            "byteOffset" : 0
        },
        {
            "buffer" : 0,
            "byteLength" : 50568,
            "byteOffset" : 50568
        },
        {
            "buffer" : 0,
            "byteLength" : 33712,
            "byteOffset" : 101136
        },
        {
            "buffer" : 0,
            "byteLength" : 9780,
            "byteOffset" : 134848
        },
        {
            "buffer" : 0,
            "byteLength" : 368,
            "byteOffset" : 144628
        }
    ],
    "buffers" : [
        {
            "byteLength" : 144996,
            "uri" : "data:application/octet-stream;base64,"
        }
    ]
}
