{
    "asset" : {
        "generator" : "Khronos glTF Blender I/O v1.0.5",
        "version" : "2.0"
    },
    "scene" : 0,
    "scenes" : [
        {
            "name" : "Scene",
            "nodes" : [
                0
            ]
        }
    ],
    "nodes" : [
        {
            "mesh" : 0,
            "name" : "basic_cube.010"
        }
    ],
    "materials" : [
        {
            "doubleSided" : true,
            "name" : "Material",
            "pbrMetallicRoughness" : {
                "baseColorTexture" : {
                    "index" : 0,
                    "texCoord" : 0
                },
                "metallicFactor" : 0.49166664481163025,
                "roughnessFactor" : 0.10833334922790527
            }
        }
    ],
    "meshes" : [
        {
            "name" : "Cube.029",
            "primitives" : [
                {
                    "attributes" : {
                        "POSITION" : 0,
                        "NORMAL" : 1,
                        "TEXCOORD_0" : 2
                    },
                    "indices" : 3,
                    "material" : 0
                }
            ]
        }
    ],
    "textures" : [
        {
            "source" : 0
        }
    ],
    "images" : [
        {
            "bufferView" : 4,
            "mimeType" : "image/png",
            "name" : "color_palette_001_02_extended"
        }
    ],
    "accessors" : [
        {
            "bufferView" : 0,
            "componentType" : 5126,
            "count" : 228,
            "max" : [
                0.9983929991722107,
                0.030899785459041595,
                0.9989719390869141
            ],
            "min" : [
                -0.9987917542457581,
                -1.9870071411132812,
                -0.9987937211990356
            ],
            "type" : "VEC3"
        },
        {
            "bufferView" : 1,
            "componentType" : 5126,
            "count" : 228,
            "type" : "VEC3"
        },
        {
            "bufferView" : 2,
            "componentType" : 5126,
            "count" : 228,
            "type" : "VEC2"
        },
        {
            "bufferView" : 3,
            "componentType" : 5123,
            "count" : 228,
            "type" : "SCALAR"
        }
    ],
    "bufferViews" : [
        {
            "buffer" : 0,
            "byteLength" : 2736,
            "byteOffset" : 0
        },
        {
            "buffer" : 0,
            "byteLength" : 2736,
            "byteOffset" : 2736
        },
        {
            "buffer" : 0,
            "byteLength" : 1824,
            "byteOffset" : 5472
        },
        {
            "buffer" : 0,
            "byteLength" : 456,
            "byteOffset" : 7296
        },
        {
            "buffer" : 0,
            "byteLength" : 3051,
            "byteOffset" : 7752
        }
    ],
    "buffers" : [
        {
            "byteLength" : 10804,
            "uri" : "data:application/octet-stream;base64,"
        }
    ]
}
